<?xml version="1.0" encoding="utf-8"?>
<!-- Generator: Adobe Illustrator 26.0.2, SVG Export Plug-In . SVG Version: 6.00 Build 0)  -->
<svg version="1.1" id="Warstwa_3" xmlns="http://www.w3.org/2000/svg" xmlns:xlink="http://www.w3.org/1999/xlink" x="0px" y="0px"
	 viewBox="0 0 430 430" style="enable-background:new 0 0 430 430;" xml:space="preserve">
<style type="text/css">
	.st0{fill:#121331;}
	.st1{fill:#F9C9C0;}
	.st2{opacity:0.5;fill:#F9C9C0;}
	.st3{fill:#646e78;}
	.st4{opacity:0.5;fill:#646e78;}
	.st5{fill:#3A3347;}
	.st6{opacity:0.5;fill:#3A3347;}
	.st7{fill:#B26836;}
	.st8{opacity:0.5;fill:#B26836;}
	.st9{fill:#FFC738;}
	.st10{fill:#4bb3fd;}
	.st11{fill:#F28BA8;}
	.st12{opacity:0.5;fill:#F28BA8;}
	.st13{opacity:0.5;fill:#4bb3fd;}
	.st14{fill:#EBE6EF;}
	.st15{opacity:0.5;fill:#EBE6EF;}
	.st16{opacity:0.5;fill:#FFC738;}
	.st17{fill:#92140C;}
	.st18{opacity:0.5;fill:#92140C;}
	.st19{fill:#F24C00;}
	.st20{opacity:0.5;fill:#F24C00;}
	.st21{fill:#2ca58d;}
	.st22{opacity:0.5;fill:#2ca58d;}
	.st23{clip-path:url(#SVGID_00000055706585303541471230000002288107669702906798_);fill:#121331;}
	.st24{fill:none;stroke:#121331;stroke-width:7;stroke-linecap:round;stroke-linejoin:round;stroke-miterlimit:10;}
	.st25{opacity:0.5;}
	.st26{fill:none;stroke:#4bb3fd;stroke-width:7;stroke-linecap:round;stroke-linejoin:round;stroke-miterlimit:10;}
</style>
<g>
	<path class="st21" d="M277.77,193.2c0,0.11,0,0.22-0.01,0.34c0,0.11,0,0.22-0.01,0.34v0.05c-0.01,0.21-0.01,0.43-0.03,0.64
		c-0.05,0.84-0.15,1.71-0.27,2.59c-0.02,0.16-0.04,0.32-0.07,0.49c-0.03,0.19-0.06,0.39-0.1,0.59c-0.1,0.65-0.23,1.31-0.37,1.97
		c-0.07,0.32-0.13,0.64-0.21,0.96c-0.03,0.15-0.07,0.3-0.1,0.45c-0.05,0.23-0.1,0.46-0.16,0.69c-0.03,0.11-0.05,0.23-0.08,0.34
		c-0.12,0.52-0.26,1.03-0.39,1.53c-0.03,0.12-0.07,0.23-0.1,0.35c-0.3,1.13-0.61,2.18-0.89,3.09c-0.06,0.18-0.11,0.37-0.17,0.54
		c-0.19,0.61-0.36,1.14-0.51,1.58c-0.31,0.85-1.09,1.43-1.99,1.46l-29.86,1.14h-0.04c-0.77,0.04-1.46,0.48-1.82,1.16l-8.4,16.59
		c-0.62,1.22-2.19,1.59-3.28,0.77l-16.87-12.59c-0.48-0.36-1.09-0.51-1.68-0.4c-0.02,0.01-0.05,0.01-0.08,0.01
		c-0.1,0.02-0.2,0.04-0.32,0.07c-0.01,0-0.03,0.01-0.05,0.01c-0.19,0.04-0.4,0.09-0.63,0.15c-0.07,0.02-0.15,0.04-0.23,0.06
		c-0.14,0.04-0.28,0.07-0.43,0.11c-0.1,0.03-0.2,0.06-0.3,0.08c-0.31,0.09-0.64,0.18-0.98,0.29c-0.11,0.04-0.23,0.07-0.34,0.11
		c-0.12,0.04-0.23,0.07-0.35,0.11c-0.23,0.08-0.46,0.15-0.7,0.23c-0.01,0.01-0.02,0.01-0.03,0.01c-0.25,0.09-0.5,0.18-0.76,0.28
		c-0.25,0.1-0.51,0.2-0.77,0.31c-0.03,0.01-0.05,0.02-0.07,0.03c-0.5,0.21-1,0.43-1.5,0.68c-0.06,0.03-0.12,0.06-0.18,0.09
		c-0.21,0.1-0.41,0.21-0.62,0.32c-0.52,0.28-1.05,0.59-1.55,0.92c-0.12,0.08-0.26,0.17-0.38,0.25c-0.14,0.1-0.28,0.2-0.42,0.29
		c-0.21,0.15-0.42,0.31-0.62,0.47c-0.02,0.02-0.04,0.04-0.06,0.05c-0.12,0.09-0.23,0.18-0.35,0.29c-0.12,0.1-0.23,0.2-0.34,0.3
		c-0.43,0.38-0.84,0.79-1.22,1.22c-0.22,0.26-0.43,0.52-0.63,0.79c-0.09,0.12-0.18,0.25-0.26,0.37c-0.09,0.13-0.18,0.27-0.26,0.4
		c-0.07,0.12-0.15,0.25-0.21,0.37c-0.08,0.14-0.15,0.27-0.22,0.41c-0.07,0.14-0.14,0.28-0.2,0.42c-0.07,0.15-0.12,0.29-0.18,0.43
		c-0.06,0.14-0.12,0.29-0.16,0.44c-0.1,0.29-0.18,0.57-0.26,0.87c-0.01,0.04-0.01,0.07-0.02,0.1c-0.04,0.15-0.07,0.29-0.1,0.44
		c-0.03,0.17-0.06,0.33-0.08,0.5c-0.03,0.15-0.04,0.32-0.06,0.48v0.02c-0.02,0.17-0.03,0.34-0.04,0.51
		c-0.01,0.17-0.01,0.34-0.01,0.52v0.01c0,0.22,0.01,0.45,0.02,0.67c0.01,0.21,0.03,0.43,0.05,0.65c0,0.03,0.01,0.06,0.01,0.08
		c0.07,0.6,0.4,1.16,0.89,1.52l13.63,9.94c0.26,0.21,0.48,0.46,0.64,0.76l9.45,19.44c0.44,0.89,0.22,1.97-0.54,2.62l-4.16,3.61
		h-0.01l-32.81-17.91c-0.59-0.32-1-0.89-1.11-1.55l-8.9-50.63c-0.12-0.66,0.07-1.33,0.52-1.84c3.35-3.76,17.04-20.29,8.8-31.16
		c-4.9-6.45-7.94-8.71-14.56-5.77c-0.29,0.13-0.61,0.2-0.93,0.2L144.69,162c19.6-14.68,43.94-23.37,70.31-23.37
		c15.86,0,30.99,3.15,44.79,8.85l2,4.09c0.45,0.99,0.1,2.17-0.82,2.76l-22.43,14.4c-1.29,0.83-1.36,2.68-0.15,3.61l11.58,8.63
		c0.43,0.32,0.97,0.47,1.5,0.43l17.9-1.52c0.76-0.05,1.48,0.29,1.91,0.91c0.45,0.63,1.09,1.52,1.76,2.52
		c0.15,0.22,0.3,0.44,0.45,0.66c1.03,1.53,2.14,3.23,2.96,4.68c0.13,0.23,0.25,0.45,0.37,0.67c0.37,0.71,0.65,1.33,0.77,1.79
		c0.01,0.05,0.03,0.1,0.04,0.15c0.01,0.07,0.03,0.13,0.04,0.19c0.03,0.28,0.06,0.56,0.07,0.86S277.77,192.89,277.77,193.2z"/>
	<path class="st21" d="M214.41,270.98l-7.74,6.71c-0.7,0.6-1.69,0.71-2.5,0.27l-35.51-19.38c-0.59-0.32-1-0.89-1.11-1.55
		l-8.47-48.16c-0.11-0.62,0.05-1.25,0.43-1.74c0.03-0.04,0.06-0.07,0.09-0.1c0.11-0.12,0.23-0.26,0.35-0.4
		c0.11-0.12,0.23-0.26,0.35-0.4c1.2-1.4,2.99-3.65,4.75-6.37c0.14-0.22,0.28-0.44,0.42-0.67c0.93-1.49,1.83-3.11,2.61-4.8
		c0.11-0.24,0.21-0.48,0.32-0.73c0.25-0.58,0.48-1.17,0.69-1.75c0.1-0.29,0.21-0.57,0.29-0.86c0.47-1.45,0.81-2.92,0.96-4.39
		c0.01-0.18,0.04-0.35,0.04-0.53c0.01-0.04,0.01-0.09,0.01-0.13c0.01-0.12,0.01-0.23,0.02-0.34c0.01-0.23,0.01-0.45,0.01-0.68
		c0-2.68-0.71-5.29-2.48-7.62c-3.32-4.36-5.73-6.71-9.11-6.71c-0.18,0-0.37,0.01-0.56,0.02s-0.39,0.04-0.59,0.07
		c-0.15,0.02-0.32,0.04-0.48,0.08c-0.12,0.02-0.25,0.05-0.37,0.08c-0.11,0.02-0.22,0.05-0.33,0.08c-0.07,0.01-0.14,0.04-0.21,0.06
		c-0.15,0.04-0.29,0.08-0.45,0.14c-0.04,0.01-0.08,0.02-0.12,0.04c-0.21,0.06-0.41,0.13-0.62,0.22c-0.23,0.08-0.46,0.18-0.7,0.28
		c-0.01,0-0.01,0.01-0.03,0.01c-0.09,0.04-0.18,0.07-0.28,0.12c-0.29,0.13-0.61,0.2-0.93,0.2l-19.88-0.29
		c0.54-0.53,1.09-1.05,1.65-1.57c0.36-0.34,0.72-0.67,1.09-1c1.85-1.69,3.75-3.31,5.71-4.87c0.45-0.36,0.89-0.71,1.34-1.06
		c0.54-0.42,1.09-0.83,1.63-1.24l20.73,0.31c0.32,0,0.64-0.07,0.93-0.2c6.62-2.93,9.66-0.68,14.56,5.77
		c8.24,10.87-5.45,27.41-8.8,31.16c-0.45,0.51-0.64,1.18-0.52,1.84l8.9,50.63c0.12,0.66,0.53,1.23,1.11,1.55L214.41,270.98z"/>
	<path class="st10" d="M332.43,256.07c0,46.4-26.9,86.51-65.96,105.58l17.92-25.49c0.04-0.05,0.07-0.11,0.11-0.16l0.12-0.16
		l0.09-0.34c0.01-0.01,0.01-0.02,0.01-0.04l5.75-21.78c0.01-0.01,0.01-0.04,0.01-0.05c0.25-1.05-0.3-2.11-1.29-2.53
		c-0.01-0.01-0.04-0.02-0.06-0.03c-0.73-0.29-1.45-0.58-2.17-0.87c-0.62-0.25-1.22-0.5-1.83-0.76c-0.81-0.34-1.63-0.7-2.43-1.05
		c-0.69-0.3-1.38-0.61-2.06-0.92c-0.01-0.01-0.01-0.01-0.02-0.01c-0.69-0.31-1.37-0.62-2.05-0.94c-0.67-0.32-1.35-0.64-2.02-0.96
		c-0.67-0.32-1.33-0.64-1.98-0.96h-0.01c-0.65-0.33-1.3-0.65-1.94-0.98c-1.92-0.98-3.79-1.97-5.59-2.94
		c-1.58-0.86-3.11-1.72-4.58-2.56c-0.21-0.12-0.4-0.23-0.61-0.35c-0.46-0.26-0.92-0.54-1.37-0.8c-0.09-0.05-0.18-0.1-0.26-0.15
		c-0.79-0.47-1.56-0.93-2.32-1.38c-0.78-0.48-1.53-0.94-2.27-1.39c-0.73-0.45-1.42-0.89-2.1-1.32c-0.35-0.22-0.69-0.44-1.03-0.65
		c-0.1-0.07-0.21-0.13-0.31-0.2c-0.4-0.26-0.78-0.51-1.16-0.76c-0.28-0.18-0.55-0.36-0.81-0.53c-0.37-0.25-0.73-0.49-1.08-0.72
		c-0.11-0.07-0.22-0.15-0.32-0.21c-0.23-0.16-0.45-0.31-0.67-0.45c-0.45-0.31-0.88-0.6-1.29-0.89c-0.12-0.09-0.26-0.17-0.38-0.26
		c-0.09-0.07-0.18-0.13-0.27-0.19c-0.06-0.04-0.12-0.09-0.18-0.12c-0.09-0.06-0.17-0.12-0.26-0.18c-0.22-0.16-0.44-0.32-0.66-0.47
		c-0.21-0.14-0.4-0.28-0.6-0.42c-0.08-0.05-0.15-0.11-0.23-0.17c-0.18-0.13-0.37-0.26-0.54-0.38c-0.59-0.43-1.12-0.81-1.58-1.14
		c-0.06-0.04-0.12-0.1-0.18-0.14c-0.01,0-0.01-0.01-0.02-0.01c-0.09-0.07-0.18-0.13-0.26-0.19c-0.01-0.01-0.03-0.02-0.04-0.03
		c-0.83-0.58-1.94-0.52-2.71,0.15c-0.01,0.01-0.02,0.02-0.04,0.03l-20.09,18.28c-0.01,0.01-0.02,0.02-0.04,0.04
		c-0.37,0.35-0.6,0.81-0.67,1.32c0,0.01,0,0.01,0,0.01l-0.92,7.96c-0.61,5.27,1.31,10.51,5.17,14.14
		c4.86,4.58,11.13,10.88,12.92,14.6c3.64,7.55,5.52,19.71,6.48,29.27c-8.6,2.01-17.55,3.07-26.75,3.07
		c-64.86,0-117.43-52.58-117.43-117.43c0-33.09,13.69-62.99,35.72-84.33l19.88,0.29c0.32,0,0.64-0.07,0.93-0.2
		c0.1-0.04,0.19-0.08,0.28-0.12c0.01-0.01,0.02-0.01,0.03-0.01c0.24-0.1,0.48-0.2,0.7-0.28c0.21-0.08,0.42-0.15,0.62-0.22
		c0.04-0.01,0.08-0.03,0.12-0.04c0.15-0.05,0.3-0.1,0.45-0.14c0.07-0.02,0.15-0.04,0.21-0.06c0.11-0.03,0.22-0.06,0.33-0.08
		c0.12-0.03,0.25-0.06,0.37-0.08c0.16-0.04,0.32-0.06,0.48-0.08c0.2-0.03,0.4-0.05,0.59-0.07s0.38-0.02,0.56-0.02
		c3.38,0,5.79,2.35,9.11,6.71c1.77,2.33,2.48,4.94,2.48,7.62c0,0.23-0.01,0.45-0.01,0.68c-0.01,0.11-0.01,0.22-0.02,0.34
		c0,0.04,0,0.09-0.01,0.13c-0.01,0.18-0.03,0.35-0.04,0.53c-0.15,1.47-0.49,2.93-0.96,4.39c-0.09,0.29-0.19,0.57-0.29,0.86
		c-0.21,0.59-0.44,1.17-0.69,1.75c-0.11,0.24-0.21,0.48-0.32,0.73c-0.78,1.69-1.68,3.32-2.61,4.8c-0.14,0.23-0.28,0.45-0.42,0.67
		c-1.75,2.71-3.55,4.97-4.75,6.37c-0.12,0.15-0.24,0.28-0.35,0.4c-0.12,0.15-0.24,0.28-0.35,0.4c-0.03,0.04-0.06,0.07-0.09,0.1
		c-0.38,0.48-0.54,1.12-0.43,1.74l8.47,48.16c0.12,0.66,0.53,1.23,1.11,1.55l35.51,19.38c0.81,0.44,1.8,0.33,2.5-0.27l7.74-6.71
		h0.01l4.16-3.61c0.76-0.65,0.98-1.72,0.54-2.62l-9.45-19.44c-0.15-0.3-0.37-0.56-0.64-0.76l-13.63-9.94
		c-0.49-0.36-0.82-0.92-0.89-1.52c-0.01-0.02-0.01-0.05-0.01-0.08c-0.02-0.22-0.04-0.43-0.05-0.65c-0.01-0.22-0.02-0.45-0.02-0.67
		v-0.01c0-0.18,0.01-0.35,0.01-0.52c0.01-0.18,0.01-0.34,0.04-0.51v-0.02c0.01-0.16,0.04-0.33,0.06-0.48
		c0.02-0.17,0.05-0.33,0.08-0.5c0.03-0.15,0.06-0.29,0.1-0.44c0.01-0.03,0.01-0.06,0.02-0.1c0.07-0.29,0.15-0.58,0.26-0.87
		c0.05-0.15,0.1-0.29,0.16-0.44c0.06-0.15,0.12-0.29,0.18-0.43c0.06-0.14,0.13-0.28,0.2-0.42c0.07-0.14,0.14-0.27,0.22-0.41
		c0.07-0.12,0.14-0.25,0.21-0.37c0.09-0.13,0.18-0.27,0.26-0.4c0.09-0.12,0.18-0.25,0.26-0.37c0.21-0.27,0.41-0.54,0.63-0.79
		c0.38-0.43,0.78-0.84,1.22-1.22c0.11-0.1,0.23-0.21,0.34-0.3c0.12-0.1,0.23-0.2,0.35-0.29c0.02-0.01,0.04-0.03,0.06-0.05
		c0.21-0.15,0.41-0.32,0.62-0.47c0.14-0.1,0.28-0.2,0.42-0.29c0.12-0.08,0.26-0.17,0.38-0.25c0.51-0.33,1.03-0.64,1.55-0.92
		c0.21-0.11,0.41-0.22,0.62-0.32c0.06-0.03,0.12-0.06,0.18-0.09c0.51-0.24,1-0.47,1.5-0.68c0.02-0.01,0.04-0.01,0.07-0.03
		c0.26-0.1,0.51-0.21,0.77-0.31c0.26-0.1,0.51-0.19,0.76-0.28c0.01,0,0.01-0.01,0.03-0.01c0.23-0.08,0.47-0.15,0.7-0.23
		c0.12-0.04,0.23-0.07,0.35-0.11c0.12-0.04,0.23-0.07,0.34-0.11c0.34-0.1,0.67-0.2,0.98-0.29c0.1-0.02,0.21-0.05,0.3-0.08
		c0.15-0.04,0.29-0.07,0.43-0.11c0.08-0.01,0.15-0.04,0.23-0.06c0.23-0.05,0.44-0.1,0.63-0.15c0.02,0,0.04-0.01,0.05-0.01
		c0.12-0.03,0.22-0.05,0.32-0.07c0.03,0,0.06-0.01,0.08-0.01c0.59-0.1,1.2,0.04,1.68,0.4l16.87,12.59c1.09,0.82,2.66,0.45,3.28-0.77
		l8.4-16.59c0.36-0.67,1.05-1.11,1.82-1.16h0.04l29.86-1.14c0.91-0.03,1.69-0.61,1.99-1.46c0.15-0.44,0.32-0.98,0.51-1.58
		c0.06-0.17,0.11-0.35,0.17-0.54c0.28-0.92,0.59-1.97,0.89-3.09c0.03-0.12,0.07-0.23,0.1-0.35c0.13-0.49,0.26-1,0.39-1.53
		c0.03-0.11,0.05-0.23,0.08-0.34c0.06-0.23,0.11-0.45,0.16-0.69c0.04-0.15,0.07-0.31,0.1-0.45c0.07-0.32,0.14-0.64,0.21-0.96
		c0.14-0.65,0.26-1.31,0.37-1.97c0.04-0.2,0.07-0.4,0.1-0.59c0.03-0.17,0.05-0.33,0.07-0.49c0.12-0.88,0.22-1.75,0.27-2.59
		c0.01-0.21,0.02-0.43,0.03-0.64v-0.05c0.01-0.12,0.01-0.23,0.01-0.34c0.01-0.12,0.01-0.23,0.01-0.34c0-0.31-0.01-0.62-0.02-0.91
		s-0.04-0.58-0.07-0.86c-0.01-0.06-0.02-0.12-0.04-0.19c-0.01-0.04-0.02-0.1-0.04-0.15c-0.12-0.46-0.4-1.08-0.77-1.79
		c-0.12-0.21-0.23-0.43-0.37-0.67c-0.81-1.44-1.92-3.15-2.96-4.68c-0.15-0.22-0.3-0.44-0.45-0.66c-0.67-1-1.31-1.88-1.76-2.52
		c-0.43-0.62-1.16-0.96-1.91-0.91l-17.9,1.52c-0.54,0.04-1.07-0.11-1.5-0.43l-11.58-8.63c-1.22-0.93-1.14-2.78,0.15-3.61l22.43-14.4
		c0.92-0.59,1.27-1.77,0.82-2.76l-2-4.09C302.43,165.09,332.43,207.08,332.43,256.07z"/>
	<path class="st10" d="M246.48,288.07c-0.06-0.04-0.12-0.08-0.18-0.12c-0.03-0.03-0.07-0.05-0.1-0.07
		C246.3,287.94,246.39,288.01,246.48,288.07z"/>
	<path class="st10" d="M260.22,296.82c-0.79-0.46-1.57-0.92-2.32-1.38C258.65,295.89,259.42,296.36,260.22,296.82z"/>
	<path class="st13" d="M221.71,373.31c-2.22,0.12-4.46,0.19-6.71,0.19c-64.86,0-117.43-52.58-117.43-117.43
		c0-33.09,13.69-62.99,35.72-84.33l13.24,0.2C124.62,193.26,111,223.08,111,256.07C111,318.67,159.99,369.83,221.71,373.31z"/>
	<path class="st21" d="M290.48,313.63c-0.01,0.01-0.01,0.04-0.01,0.05l-5.75,21.78c0,0.01-0.01,0.02-0.01,0.04
		c-0.04,0.18-0.12,0.34-0.21,0.51c-0.04,0.05-0.07,0.11-0.11,0.16l-17.92,25.49c-2.84,1.39-5.74,2.66-8.7,3.81v0.01
		c-0.59,0.23-1.2,0.46-1.8,0.69c-0.05,0.01-0.1,0.04-0.15,0.05c-0.65,0.24-1.31,0.48-1.97,0.71c-0.6,0.21-1.2,0.41-1.8,0.61
		c-1.29,0.43-2.59,0.84-3.9,1.22c-0.4,0.12-0.81,0.23-1.22,0.35c-1.72,0.48-3.45,0.93-5.19,1.33c-0.97-9.56-2.85-21.72-6.48-29.27
		c-1.79-3.72-8.05-10.03-12.92-14.6c-3.87-3.63-5.78-8.87-5.17-14.14l0.92-7.96c0-0.01,0-0.01,0-0.01c0.07-0.51,0.3-0.97,0.67-1.32
		c0.01-0.01,0.02-0.02,0.04-0.04l20.09-18.28c0.01-0.01,0.02-0.02,0.04-0.03c0.76-0.67,1.88-0.73,2.71-0.15
		c0.01,0.01,0.03,0.02,0.04,0.03c0.08,0.06,0.17,0.12,0.26,0.19c0.01,0.01,0.01,0.01,0.02,0.01c0.06,0.04,0.12,0.1,0.18,0.14
		c0.45,0.33,0.98,0.71,1.58,1.14c0.18,0.12,0.36,0.26,0.54,0.38c0.08,0.06,0.15,0.12,0.23,0.17c0.2,0.14,0.4,0.28,0.6,0.42
		c0.22,0.15,0.44,0.31,0.66,0.47c0.09,0.06,0.17,0.12,0.26,0.18c0.06,0.04,0.12,0.08,0.18,0.12c0.03,0.02,0.07,0.04,0.1,0.07
		c0.06,0.04,0.12,0.07,0.18,0.12c0.12,0.09,0.26,0.17,0.38,0.26c0.41,0.29,0.84,0.58,1.29,0.89c0.22,0.15,0.44,0.3,0.67,0.45
		c0.1,0.07,0.21,0.14,0.32,0.21c0.35,0.23,0.71,0.47,1.08,0.72c0.26,0.17,0.54,0.35,0.81,0.53c0.37,0.25,0.76,0.51,1.16,0.76
		c0.1,0.07,0.21,0.13,0.31,0.2c0.34,0.22,0.67,0.44,1.03,0.65c0.68,0.43,1.38,0.87,2.1,1.32c0.73,0.45,1.49,0.92,2.27,1.39
		c0.76,0.45,1.53,0.91,2.32,1.38c0.08,0.05,0.17,0.1,0.26,0.15c0.45,0.26,0.91,0.54,1.37,0.8c0.21,0.12,0.4,0.23,0.61,0.35
		c1.47,0.84,3,1.7,4.58,2.56c1.8,0.98,3.67,1.96,5.59,2.94c0.64,0.32,1.28,0.65,1.94,0.98h0.01c0.65,0.32,1.31,0.65,1.98,0.96
		c0.67,0.32,1.34,0.64,2.02,0.96c0.68,0.32,1.36,0.63,2.05,0.94c0.01,0.01,0.01,0.01,0.02,0.01c0.68,0.31,1.37,0.62,2.06,0.92
		c0.81,0.35,1.62,0.7,2.43,1.05c0.61,0.26,1.21,0.51,1.83,0.76c0.72,0.29,1.44,0.59,2.17,0.87c0.02,0.01,0.04,0.01,0.06,0.03
		C290.18,311.52,290.73,312.59,290.48,313.63z"/>
	<path class="st22" d="M214.41,270.98l-7.74,6.71c-0.7,0.6-1.69,0.71-2.5,0.27l-35.51-19.38c-0.59-0.32-1-0.89-1.11-1.55
		l-8.47-48.16c-0.11-0.62,0.05-1.25,0.43-1.74c0.03-0.04,0.06-0.07,0.09-0.1c0.11-0.12,0.23-0.26,0.35-0.4
		c0.11-0.12,0.23-0.26,0.35-0.4c1.2-1.4,2.99-3.65,4.75-6.37c0.14-0.22,0.28-0.44,0.42-0.67c0.93-1.49,1.83-3.11,2.61-4.8
		c0.11-0.24,0.21-0.48,0.32-0.73c0.25-0.58,0.48-1.17,0.69-1.75c0.1-0.29,0.21-0.57,0.29-0.86c0.47-1.45,0.81-2.92,0.96-4.39
		c0.01-0.18,0.04-0.35,0.04-0.53c0.01-0.04,0.01-0.09,0.01-0.13c0.01-0.12,0.01-0.23,0.02-0.34c0.01-0.23,0.01-0.45,0.01-0.68
		c0-2.68-0.71-5.29-2.48-7.62c-3.32-4.36-5.73-6.71-9.11-6.71c-0.18,0-0.37,0.01-0.56,0.02s-0.39,0.04-0.59,0.07
		c-0.15,0.02-0.32,0.04-0.48,0.08c-0.12,0.02-0.25,0.05-0.37,0.08c-0.11,0.02-0.22,0.05-0.33,0.08c-0.07,0.01-0.14,0.04-0.21,0.06
		c-0.15,0.04-0.29,0.08-0.45,0.14c-0.04,0.01-0.08,0.02-0.12,0.04c-0.21,0.06-0.41,0.13-0.62,0.22c-0.23,0.08-0.46,0.18-0.7,0.28
		c-0.01,0-0.01,0.01-0.03,0.01c-0.09,0.04-0.18,0.07-0.28,0.12c-0.29,0.13-0.61,0.2-0.93,0.2l-19.88-0.29
		c0.54-0.53,1.09-1.05,1.65-1.57c0.36-0.34,0.72-0.67,1.09-1c1.85-1.69,3.75-3.31,5.71-4.87c0.45-0.36,0.89-0.71,1.34-1.06
		c0.54-0.42,1.09-0.83,1.63-1.24l20.73,0.31c0.32,0,0.64-0.07,0.93-0.2c6.62-2.93,9.66-0.68,14.56,5.77
		c8.24,10.87-5.45,27.41-8.8,31.16c-0.45,0.51-0.64,1.18-0.52,1.84l8.9,50.63c0.12,0.66,0.53,1.23,1.11,1.55L214.41,270.98z"/>
	<path class="st22" d="M257.77,365.46L257.77,365.46c-0.59,0.24-1.2,0.47-1.8,0.7c-0.05,0.01-0.1,0.04-0.15,0.05
		c-0.65,0.24-1.31,0.48-1.97,0.71c-0.6,0.21-1.2,0.41-1.8,0.61c-1.29,0.43-2.59,0.84-3.9,1.22c-0.4,0.12-0.81,0.23-1.22,0.35
		c-1.72,0.48-3.45,0.93-5.19,1.33c-0.97-9.56-2.85-21.72-6.48-29.27c-1.79-3.72-8.05-10.03-12.92-14.6
		c-3.87-3.63-5.78-8.87-5.17-14.14l0.92-7.96c0-0.01,0-0.01,0-0.01c0.07-0.51,0.3-0.97,0.67-1.32c0.01-0.01,0.02-0.02,0.04-0.04
		l20.09-18.28c0.01-0.01,0.02-0.02,0.04-0.03c0.76-0.67,1.88-0.73,2.71-0.15c0.01,0.01,0.03,0.02,0.04,0.03
		c0.08,0.06,0.17,0.12,0.26,0.19c0.01,0.01,0.01,0.01,0.02,0.01c0.06,0.04,0.12,0.1,0.18,0.14c0.45,0.33,0.98,0.71,1.58,1.14
		c0.18,0.12,0.36,0.26,0.54,0.38c0.08,0.06,0.15,0.12,0.23,0.17c0.2,0.14,0.4,0.28,0.6,0.42c0.22,0.15,0.44,0.31,0.66,0.47
		c0.09,0.06,0.17,0.12,0.26,0.18c0.06,0.04,0.12,0.08,0.18,0.12c0.09,0.06,0.18,0.12,0.27,0.19c0.12,0.09,0.26,0.17,0.38,0.26
		l-12.61,11.48c-0.39,0.36-0.64,0.84-0.7,1.37l-0.98,8.4c-0.64,5.52,1.37,11.02,5.42,14.83c5.1,4.8,11.68,11.42,13.55,15.32
		C254.74,346.39,256.65,356.46,257.77,365.46z"/>
</g>
<path class="st3" d="M371.62,282.23c-1.93,0-3.5-1.57-3.5-3.5v-68.7c0-87.9-64.3-151.7-152.88-151.7
	c-87.16,0-152.88,65.22-152.88,151.7v68.7c0,1.93-1.57,3.5-3.5,3.5s-3.5-1.57-3.5-3.5v-68.7c0-43,15.89-82.84,44.75-112.19
	c29.49-29.99,70.37-46.5,115.13-46.5c45.54,0,86.74,16.63,116.02,46.82c28.29,29.18,43.87,68.91,43.87,111.87v68.7
	C375.12,280.66,373.56,282.23,371.62,282.23z"/>
<path class="st3" d="M358.16,311.06h6.73c5.63,0,10.24-4.61,10.24-10.24v-89.51c0-5.63-4.61-10.24-10.24-10.24h-6.73
	c-13.91,0-25.28,11.38-25.28,25.28v59.42C332.88,299.68,344.26,311.06,358.16,311.06z"/>
<path class="st3" d="M71.84,311.06h-6.73c-5.63,0-10.24-4.61-10.24-10.24v-89.51c0-5.63,4.61-10.24,10.24-10.24h6.73
	c13.91,0,25.28,11.38,25.28,25.28v59.42C97.12,299.68,85.74,311.06,71.84,311.06z"/>
<path class="st4" d="M360.22,311.06h-2.06c-13.9,0-25.28-11.38-25.28-25.29v-59.41c0-11.44,7.7-21.17,18.18-24.25
	c-1.66,3.52-2.59,7.45-2.59,11.59v74.88C348.47,297.85,353.13,306.09,360.22,311.06z"/>
<path class="st4" d="M72.31,311.05c-0.16,0.01-0.31,0.01-0.47,0.01h-6.73c-5.63,0-10.24-4.61-10.24-10.24v-89.51
	c0-5.63,4.61-10.23,10.24-10.23h5.35v103.85C70.46,307.19,71.14,309.29,72.31,311.05z"/>
<g>
	<defs>
		<path id="SVGID_1_" d="M-255.41,377.73c-66.93,0-121.38-54.45-121.38-121.38s54.45-121.38,121.38-121.38
			c66.93,0,121.38,54.45,121.38,121.38S-188.48,377.73-255.41,377.73z M-255.41,141.97c-63.07,0-114.38,51.31-114.38,114.38
			c0,63.07,51.31,114.38,114.38,114.38s114.38-51.31,114.38-114.38C-141.03,193.28-192.34,141.97-255.41,141.97z"/>
	</defs>
	<use xlink:href="#SVGID_1_"  style="overflow:visible;fill:#121331;"/>
	<clipPath id="SVGID_00000094575618575505669680000015580989572241760168_">
		<use xlink:href="#SVGID_1_"  style="overflow:visible;"/>
	</clipPath>
	<path style="clip-path:url(#SVGID_00000094575618575505669680000015580989572241760168_);fill:#121331;" d="M-74.41,345.05
		c-7.63,0-21.73-14.35-25.18-28.47c-0.16-0.64-0.13-1.31,0.08-1.94c4.76-14.29,2.53-39.16,1.19-47.03l-17,1.75
		c-1.15,0.12-2.29-0.34-3.04-1.23c-1.75-2.08-3.71-4.15-5.78-6.34c-6.97-7.37-14.18-14.98-13.55-23.56
		c0.34-4.62,2.97-8.9,7.82-12.71c0.16-0.12,0.32-0.23,0.49-0.32c6.75-3.67,29.37-15.59,37.02-14.81c3.89,0.39,9.37,3.38,17.75,9.69
		c3.42,2.58,9.07,1.46,12.08,0.44l7.45-17.53l-33.44-12.06l-23.61-0.9c-1.51-0.06-2.82-1.08-3.23-2.54
		c-0.42-1.46,0.15-3.01,1.4-3.86c0.65-0.44,16.06-10.86,19.63-13.06c0.1-0.06,0.2-0.12,0.31-0.17l13.95-6.78l-21.99-12.22
		c-0.99-0.55-1.65-1.54-1.78-2.66c-0.13-1.12,0.29-2.23,1.12-2.99c1.57-1.43,15.47-14.02,21.33-17.23c0.59-0.32,1.25-0.46,1.92-0.42
		l30.71,2.09c1.4,0.1,2.6,1.01,3.07,2.34l7.14,20.41l24.12-6.64c3.55-5.89,9.69-14.28,15.49-13.62c33.54,3.9,56.27,3.21,74.53,2.66
		c23.12-0.7,38.4-1.16,56.42,8.98c3.78,2.13,1.3,7.01-0.04,9.63c-1.86,3.66-4.93,8.55-7.8,12.45c-3.7,5-6.52,7.9-9.39,7.47
		l-24.63,1.35c-0.04,0.01-4.49,0.99-11.08,24.85c-3.02,10.93-5.13,21.83-5.71,24.91c2.69,8.32,4.91,18.64,1.06,22.49
		c-3.02,3.02-8.22,5.64-8.8,5.93c-1.39,0.68-3.06,0.38-4.12-0.75c-9.63-10.34-21.5-22.13-24.7-24.02
		c-7.64,0.9-11.84,16.23-12.73,21.67c-0.29,1.81-1.94,3.09-3.77,2.93l-9.57-0.87c-1.37-0.12-2.54-1.04-2.99-2.35
		c-5.33-15.52-20.01-26.92-29.73-34.47c-0.12-0.09-0.24-0.19-0.36-0.28l-5.06,18.01c-0.08,0.29-0.2,0.58-0.36,0.84l-12.54,21.14
		l14.99,2.29c1.04,0.16,1.96,0.78,2.49,1.69s0.63,2.01,0.26,3c-2.24,5.99-12.64,26.87-22.69,44.8
		C-66.55,345.05-71.66,345.05-74.41,345.05z M-74.81,338.1L-74.81,338.1C-74.81,338.1-74.81,338.1-74.81,338.1z M-92.55,315.84
		c3.27,11.54,14.59,21.59,17.9,22.18c1.13-0.61,6.96-5.05,24.2-36.05c8.43-15.15,16.1-30.46,19.62-38.21l-15.66-2.39
		c-1.15-0.18-2.14-0.91-2.64-1.96s-0.44-2.28,0.15-3.28l14.95-25.21l6.36-22.63c0.32-1.14,1.2-2.04,2.33-2.39
		c1.13-0.35,2.36-0.11,3.27,0.64c1.21,1,2.68,2.14,4.37,3.46c9.34,7.26,24.71,19.2,31.25,35.58l4.24,0.39
		c1.68-7.4,6.85-24.05,19.37-24.38c1.54-0.04,4.7-0.12,27.6,24.3c1.53-0.9,3.38-2.1,4.56-3.23c0.71-1.86-0.64-9.53-2.9-16.32
		c-0.18-0.55-0.23-1.14-0.12-1.72c0.1-0.55,2.43-13.55,6.13-26.86c7.16-25.73,13.02-29.29,17.32-29.52l24.86-1.36
		c2.7-2.22,9.82-12.89,11.86-17.58c-15.42-8.02-28.93-7.61-50.69-6.95c-18.47,0.56-41.44,1.25-75.42-2.69
		c-1.77,0.45-6.26,5.83-9.49,11.41c-0.46,0.79-1.22,1.38-2.1,1.62l-28.64,7.88c-1.77,0.49-3.62-0.48-4.23-2.22l-7.45-21.32
		l-27.33-1.86c-3.7,2.34-10.7,8.28-15.5,12.51l23.57,13.1c1.14,0.63,1.83,1.85,1.8,3.16c-0.04,1.3-0.79,2.48-1.97,3.05l-19.84,9.65
		c-1.77,1.11-6.19,4.04-10.35,6.83l13.43,0.51c0.36,0.01,0.72,0.08,1.05,0.21l37.43,13.5c0.91,0.33,1.64,1.01,2.02,1.89
		s0.39,1.88,0.01,2.77l-9.48,22.3c-0.35,0.82-0.99,1.47-1.81,1.83c-0.5,0.22-12.26,5.3-20.34-0.79c-9.19-6.92-12.86-8.18-14.24-8.32
		c-3.75-0.33-19.83,6.87-32.72,13.85c-3.14,2.52-4.75,4.99-4.94,7.54c-0.4,5.5,5.73,11.98,11.65,18.24
		c1.62,1.71,3.28,3.47,4.84,5.23l18.16-1.87c1.12-0.12,2.22,0.31,2.96,1.14c2.47,2.75,3.3,21.23,3.33,22.02
		C-89.36,292.88-89.53,305.96-92.55,315.84z M36.49,228.45C36.49,228.45,36.49,228.45,36.49,228.45
		C36.49,228.45,36.49,228.45,36.49,228.45z M116.58,167.16C116.58,167.16,116.59,167.16,116.58,167.16
		C116.59,167.16,116.58,167.16,116.58,167.16z M116.57,167.15C116.57,167.15,116.58,167.15,116.57,167.15
		C116.58,167.15,116.57,167.15,116.57,167.15z M0.46,139.63L0.46,139.63z"/>
	<path style="clip-path:url(#SVGID_00000094575618575505669680000015580989572241760168_);fill:#121331;" d="M141.56,402.98
		c-6.99,0-13.67-3.45-17.68-9.23l-6.53-9.39l-38.22,8.85c-1.07,0.25-2.19-0.02-3.04-0.73s-1.3-1.76-1.25-2.86l0.99-19.64
		c0.61-12.05,12.33-21.68,23.61-24.31l30.8-23.75c1.44-1.11,3.48-0.94,4.71,0.39l13.43,14.51l11-15.13c0.86-1.18,2.35-1.7,3.76-1.32
		c1.4,0.39,2.42,1.6,2.56,3.05l1.99,21.36l8.4,14.18c2.66,4.49,2.39,10.11-0.69,14.33l-20.12,27.57c-0.61,0.84-1.56,1.36-2.6,1.43
		l-9.73,0.64C142.49,402.97,142.03,402.98,141.56,402.98z M118.87,376.92c1.13,0,2.21,0.55,2.87,1.5l7.88,11.34
		c2.89,4.15,7.82,6.52,12.87,6.2l8.1-0.54l19.16-26.25c1.42-1.95,1.55-4.55,0.32-6.63l-8.81-14.86c-0.26-0.45-0.43-0.94-0.47-1.46
		l-1.2-12.91l-8.05,11.08c-0.62,0.85-1.58,1.37-2.62,1.44c-1.04,0.06-2.06-0.35-2.77-1.12l-14.15-15.29l-28.89,22.28
		c-0.42,0.33-0.91,0.55-1.44,0.66c-8.75,1.78-18.4,9.43-18.83,17.98l-0.75,15.01l36.01-8.34
		C118.34,376.94,118.61,376.92,118.87,376.92z"/>
	<path style="clip-path:url(#SVGID_00000094575618575505669680000015580989572241760168_);fill:#121331;" d="M98.98,312.86
		c-0.35,0-0.7-0.05-1.03-0.15l-41.46-12.76c-0.72-0.22-1.35-0.67-1.8-1.28l-19.89-27.21c-0.83-1.14-0.9-2.67-0.17-3.88l3.75-6.19
		c0.57-0.95,1.57-1.57,2.67-1.67s2.19,0.32,2.93,1.15l23.46,26.2l46.69,18.08c1.53,0.59,2.44,2.17,2.2,3.79
		c-0.25,1.62-1.59,2.86-3.22,2.97l-13.88,0.94C99.14,312.86,99.06,312.86,98.98,312.86z M59.66,293.6l25.53,7.85l-21.05-8.15
		c-0.51-0.2-0.98-0.52-1.34-0.93l-20.86-23.31l-0.09,0.15L59.66,293.6z"/>
</g>
</svg>
